<?xml version="1.0" encoding="utf-8"?>
<!-- Generator: Adobe Illustrator 23.0.3, SVG Export Plug-In . SVG Version: 6.00 Build 0)  -->
<svg version="1.1" id="Layer_1" xmlns="http://www.w3.org/2000/svg" xmlns:xlink="http://www.w3.org/1999/xlink" x="0px" y="0px"
	 viewBox="0 0 553.22 553.22" style="enable-background:new 0 0 553.22 553.22;" xml:space="preserve">
<style type="text/css">
	.st0{fill:#BED1DA;}
	.st1{fill:#00326A;}
	.st2{enable-background:new    ;}
	.st3{fill:#003E7E;}
</style>
<g id="Group_100" transform="translate(-354 -4058)">
	<g id="Group_95" transform="translate(975.873 4063.01)">
		<path id="Path_210" class="st0" d="M-345.26-5.01c-152.77,0-276.61,123.84-276.61,276.61s123.84,276.61,276.61,276.61
			S-68.65,424.37-68.65,271.6h-276.61V-5.01z"/>
		<path id="Path_211" class="st1" d="M-80.56,271.6c0-146.19-118.51-264.7-264.7-264.7v264.7H-80.56z"/>
	</g>
	<g class="st2">
		<path class="st3" d="M437.02,4328.45c2.85-18.22,11.55-25.87,22.65-33.22c-1.58,0.38-3.3,0.52-5.02,0.52
			c-6.82,0-12.45-2.77-16.57-6v9.97h-7.65v-18.52h8.47c12.6,0,16.65,6.9,21.9,8.47l-0.83-8.47h9.9l-0.15,4.12
			c-0.9,16.05-12.6,21.37-26.85,45.67h-6.3L437.02,4328.45z"/>
		<path class="st3" d="M480.52,4322.75c1.8,1.35,4.5,1.95,8.02,1.95c6.15,0,9-3.67,9-10.27v-0.97c0-6.23-2.55-9.08-8.02-9.08
			c-5.55,0-7.73,2.47-8.55,5.33h-8.25l2.85-28.5h34.35c-1.88,7.8-5.62,9.6-14.17,9.6H482.7l-1.5,10.5c2.62-2.85,6.9-4.42,12.07-4.42
			c10.72,0,17.02,5.85,17.02,16.35c0,11.77-7.65,18.82-21.22,18.82c-11.02,0-18.37-4.72-18.37-12.45c0-5.1,3.08-8.33,7.73-8.33
			c3.82,0,6.3,2.4,6.3,5.78C484.72,4319.68,483.22,4321.85,480.52,4322.75z"/>
		<path class="st3" d="M512.55,4292.68c0-7.35,5.02-12.52,13.27-12.52c7.95,0,12.97,5.17,12.97,12.52s-5.17,12.52-13.27,12.52
			C517.5,4305.2,512.55,4300.1,512.55,4292.68z M536.47,4304.45l17.25-23.25h8.32l-17.62,23.32L524.85,4331h-8.4L536.47,4304.45z
			 M529.95,4293.28v-1.2c0-4.87-1.2-6.52-4.27-6.52c-3.15,0-4.35,1.65-4.35,6.52v1.2c0,4.95,1.12,6.6,4.2,6.6
			C528.67,4299.88,529.95,4298.23,529.95,4293.28z M539.92,4319.53c0-7.35,5.1-12.52,13.27-12.52c7.95,0,12.97,5.1,12.97,12.52
			c0,7.35-5.1,12.52-13.27,12.52C544.87,4332.05,539.92,4326.88,539.92,4319.53z M557.32,4320.12v-1.2c0-4.95-1.05-6.6-4.2-6.6
			c-3.15,0-4.42,1.65-4.42,6.6v1.2c0,4.88,1.2,6.53,4.35,6.53C556.12,4326.65,557.32,4324.92,557.32,4320.12z"/>
	</g>
	<g class="st2">
		<path class="st3" d="M435.67,4383.7c2.9,0,5.4,2.3,5.4,6.32c0,3.97-2.5,6.27-5.4,6.27c-2.87,0-5.37-2.3-5.37-6.27
			C430.3,4386,432.8,4383.7,435.67,4383.7z M435.67,4395.33c2.42,0,4.25-2.15,4.25-5.3c0-3.17-1.82-5.35-4.25-5.35
			s-4.22,2.17-4.22,5.35C431.45,4393.18,433.25,4395.33,435.67,4395.33z"/>
		<path class="st3" d="M454.27,4379.03c-0.5-0.25-1-0.35-1.45-0.35c-1.27,0-1.87,1-1.87,2.72v2.6h2.77v0.95h-2.77V4396h-1.1v-11.05
			h-1.65v-0.85l1.65-0.1v-2.67c0-2.37,1.07-3.6,2.97-3.6c0.55,0,1.2,0.15,1.75,0.4L454.27,4379.03z"/>
		<path class="st3" d="M471.22,4384h0.95l0.1,1.85h0.08c1.22-1.22,2.47-2.15,4.12-2.15c2.47,0,3.62,1.5,3.62,4.6v7.7H479v-7.55
			c0-2.55-0.8-3.75-2.75-3.75c-1.42,0-2.45,0.75-3.92,2.25v9.05h-1.1V4384z"/>
		<path class="st3" d="M493.75,4383.7c2.85,0,4.6,2.02,4.6,5.55c0,0.3,0,0.6-0.05,0.9h-8.65c0.05,3.02,1.82,5.2,4.52,5.2
			c1.3,0,2.32-0.43,3.22-1.08l0.45,0.85c-0.95,0.58-2.02,1.17-3.77,1.17c-3.07,0-5.55-2.35-5.55-6.27S491.07,4383.7,493.75,4383.7z
			 M497.3,4389.3c0-3.07-1.38-4.65-3.52-4.65c-2.05,0-3.87,1.78-4.12,4.65H497.3z"/>
		<path class="st3" d="M505.2,4384h1.2l2.15,7.77c0.3,1.1,0.57,2.12,0.82,3.2h0.1c0.27-1.08,0.57-2.1,0.87-3.2l2.17-7.77h1.32
			l2.17,7.77c0.3,1.1,0.6,2.12,0.9,3.2h0.1c0.27-1.08,0.58-2.1,0.85-3.2L520,4384h1.12l-3.45,12h-1.45l-2.1-7.45
			c-0.35-1.15-0.57-2.25-0.92-3.42h-0.1c-0.27,1.17-0.58,2.32-0.95,3.47l-2.07,7.4h-1.32L505.2,4384z"/>
		<path class="st3" d="M538.15,4393.83c1.02,0.85,2.1,1.53,3.82,1.53c1.87,0,2.85-1.1,2.85-2.38c0-1.5-1.55-2.15-2.92-2.65
			c-1.82-0.65-3.82-1.37-3.82-3.42c0-1.75,1.38-3.2,3.87-3.2c1.27,0,2.55,0.52,3.42,1.25l-0.6,0.77c-0.8-0.6-1.65-1.08-2.87-1.08
			c-1.85,0-2.7,1.08-2.7,2.17c0,1.33,1.4,1.9,2.82,2.42c1.87,0.7,3.92,1.32,3.92,3.67c0,1.8-1.45,3.37-4.05,3.37
			c-1.77,0-3.32-0.75-4.4-1.65L538.15,4393.83z"/>
		<path class="st3" d="M554.4,4384.95h-1.87v-0.85l1.9-0.1l0.15-3.47h0.95v3.47H559v0.95h-3.47v7.82c0,1.53,0.38,2.55,2.02,2.55
			c0.45,0,1.07-0.17,1.5-0.38l0.3,0.9c-0.7,0.25-1.45,0.45-1.95,0.45c-2.32,0-3-1.47-3-3.62V4384.95z"/>
		<path class="st3" d="M566.52,4384h1.1v7.55c0,2.55,0.8,3.75,2.72,3.75c1.42,0,2.47-0.75,3.87-2.45V4384h1.1v12h-0.92l-0.12-2
			h-0.05c-1.17,1.38-2.42,2.3-4.07,2.3c-2.47,0-3.62-1.5-3.62-4.6V4384z"/>
		<path class="st3" d="M589.25,4383.7c1.45,0,2.42,0.55,3.62,1.47l-0.05-2.2v-4.95h1.1V4396h-0.95l-0.1-1.55h-0.08
			c-0.97,0.97-2.3,1.85-3.9,1.85c-3.02,0-4.97-2.22-4.97-6.27C583.92,4386.15,586.4,4383.7,589.25,4383.7z M589.05,4395.33
			c1.32,0,2.5-0.7,3.77-1.97v-7.12c-1.27-1.12-2.32-1.55-3.5-1.55c-2.4,0-4.22,2.32-4.22,5.35
			C585.1,4393.2,586.5,4395.33,589.05,4395.33z"/>
		<path class="st3" d="M607.75,4383.7c2.85,0,4.6,2.02,4.6,5.55c0,0.3,0,0.6-0.05,0.9h-8.65c0.05,3.02,1.82,5.2,4.52,5.2
			c1.3,0,2.32-0.43,3.22-1.08l0.45,0.85c-0.95,0.58-2.02,1.17-3.77,1.17c-3.07,0-5.55-2.35-5.55-6.27S605.07,4383.7,607.75,4383.7z
			 M611.3,4389.3c0-3.07-1.38-4.65-3.52-4.65c-2.05,0-3.87,1.78-4.12,4.65H611.3z"/>
		<path class="st3" d="M620.6,4384h0.95l0.1,1.85h0.08c1.22-1.22,2.47-2.15,4.12-2.15c2.47,0,3.62,1.5,3.62,4.6v7.7h-1.1v-7.55
			c0-2.55-0.8-3.75-2.75-3.75c-1.42,0-2.45,0.75-3.92,2.25v9.05h-1.1V4384z"/>
		<path class="st3" d="M639.17,4384.95h-1.88v-0.85l1.9-0.1l0.15-3.47h0.95v3.47h3.47v0.95h-3.47v7.82c0,1.53,0.38,2.55,2.02,2.55
			c0.45,0,1.08-0.17,1.5-0.38l0.3,0.9c-0.7,0.25-1.45,0.45-1.95,0.45c-2.33,0-3-1.47-3-3.62V4384.95z"/>
		<path class="st3" d="M650.85,4393.83c1.02,0.85,2.1,1.53,3.82,1.53c1.87,0,2.85-1.1,2.85-2.38c0-1.5-1.55-2.15-2.92-2.65
			c-1.82-0.65-3.82-1.37-3.82-3.42c0-1.75,1.38-3.2,3.88-3.2c1.27,0,2.55,0.52,3.42,1.25l-0.6,0.77c-0.8-0.6-1.65-1.08-2.88-1.08
			c-1.85,0-2.7,1.08-2.7,2.17c0,1.33,1.4,1.9,2.82,2.42c1.88,0.7,3.92,1.32,3.92,3.67c0,1.8-1.45,3.37-4.05,3.37
			c-1.77,0-3.32-0.75-4.4-1.65L650.85,4393.83z"/>
		<path class="st3" d="M676.8,4384h0.95l0.1,2.22h0.08c0.8-1.47,1.97-2.52,3.4-2.52c0.45,0,0.8,0.05,1.2,0.25l-0.25,1
			c-0.4-0.15-0.62-0.2-1.1-0.2c-1.08,0-2.35,0.82-3.27,3.07v8.17h-1.1V4384z"/>
		<path class="st3" d="M693.7,4383.7c2.85,0,4.6,2.02,4.6,5.55c0,0.3,0,0.6-0.05,0.9h-8.65c0.05,3.02,1.82,5.2,4.52,5.2
			c1.3,0,2.32-0.43,3.22-1.08l0.45,0.85c-0.95,0.58-2.02,1.17-3.77,1.17c-3.07,0-5.55-2.35-5.55-6.27S691.02,4383.7,693.7,4383.7z
			 M697.24,4389.3c0-3.07-1.37-4.65-3.52-4.65c-2.05,0-3.87,1.78-4.12,4.65H697.24z"/>
		<path class="st3" d="M711.02,4383.7c1.65,0,2.72,0.72,3.52,1.47l-0.65,0.77c-0.77-0.72-1.67-1.27-2.85-1.27
			c-2.45,0-4.35,2.17-4.35,5.35c0,3.15,1.72,5.3,4.35,5.3c1.28,0,2.38-0.62,3.2-1.38l0.58,0.75c-1.02,0.92-2.3,1.6-3.82,1.6
			c-3.1,0-5.45-2.3-5.45-6.27C705.55,4386,708.1,4383.7,711.02,4383.7z"/>
		<path class="st3" d="M726.57,4383.7c2.85,0,4.6,2.02,4.6,5.55c0,0.3,0,0.6-0.05,0.9h-8.65c0.05,3.02,1.82,5.2,4.52,5.2
			c1.3,0,2.32-0.43,3.22-1.08l0.45,0.85c-0.95,0.58-2.02,1.17-3.77,1.17c-3.07,0-5.55-2.35-5.55-6.27S723.9,4383.7,726.57,4383.7z
			 M730.12,4389.3c0-3.07-1.37-4.65-3.52-4.65c-2.05,0-3.87,1.78-4.12,4.65H730.12z"/>
		<path class="st3" d="M739,4380.13c0-0.62,0.45-1,1-1s1,0.38,1,1c0,0.58-0.45,0.97-1,0.97S739,4380.7,739,4380.13z M739.42,4384
			h1.1v12h-1.1V4384z"/>
		<path class="st3" d="M748.15,4384h1.2l2.7,7.52c0.38,1.15,0.82,2.35,1.2,3.45h0.1c0.4-1.1,0.82-2.3,1.22-3.45l2.7-7.52h1.12
			l-4.45,12h-1.3L748.15,4384z"/>
		<path class="st3" d="M770.22,4383.7c2.85,0,4.6,2.02,4.6,5.55c0,0.3,0,0.6-0.05,0.9h-8.65c0.05,3.02,1.82,5.2,4.52,5.2
			c1.3,0,2.32-0.43,3.22-1.08l0.45,0.85c-0.95,0.58-2.02,1.17-3.77,1.17c-3.07,0-5.55-2.35-5.55-6.27S767.54,4383.7,770.22,4383.7z
			 M773.77,4389.3c0-3.07-1.37-4.65-3.52-4.65c-2.05,0-3.87,1.78-4.12,4.65H773.77z"/>
	</g>
	<g class="st2">
		<path class="st3" d="M438.37,4426.48c0.05-1.82-0.47-3.8-2.82-3.8c-1.62,0-3.02,0.8-3.82,1.4l-0.5-0.82
			c0.85-0.6,2.5-1.55,4.45-1.55c2.85,0,3.8,2.05,3.8,4.62v7.67h-0.92l-0.12-1.55h-0.05c-1.22,0.97-2.67,1.85-4.25,1.85
			c-1.9,0-3.5-1.02-3.5-3.3C430.62,4428.35,433.05,4427.08,438.37,4426.48z M434.3,4433.35c1.37,0,2.6-0.67,4.07-1.95v-4.07
			c-4.92,0.58-6.6,1.72-6.6,3.62C431.77,4432.68,432.92,4433.35,434.3,4433.35z"/>
		<path class="st3" d="M457.9,4431.83c1.02,0.85,2.1,1.53,3.82,1.53c1.87,0,2.85-1.1,2.85-2.38c0-1.5-1.55-2.15-2.92-2.65
			c-1.82-0.65-3.82-1.37-3.82-3.42c0-1.75,1.38-3.2,3.87-3.2c1.27,0,2.55,0.52,3.42,1.25l-0.6,0.77c-0.8-0.6-1.65-1.08-2.87-1.08
			c-1.85,0-2.7,1.08-2.7,2.17c0,1.33,1.4,1.9,2.82,2.42c1.87,0.7,3.92,1.32,3.92,3.67c0,1.8-1.45,3.37-4.05,3.37
			c-1.77,0-3.32-0.75-4.4-1.65L457.9,4431.83z"/>
		<path class="st3" d="M478.35,4421.7c1.65,0,2.72,0.72,3.52,1.47l-0.65,0.77c-0.77-0.72-1.67-1.27-2.85-1.27
			c-2.45,0-4.35,2.17-4.35,5.35c0,3.15,1.72,5.3,4.35,5.3c1.27,0,2.37-0.62,3.2-1.38l0.57,0.75c-1.02,0.92-2.3,1.6-3.82,1.6
			c-3.1,0-5.45-2.3-5.45-6.27C472.87,4424,475.42,4421.7,478.35,4421.7z"/>
		<path class="st3" d="M490.1,4416.03h1.1v5.2v2.65c1.25-1.25,2.5-2.17,4.15-2.17c2.47,0,3.62,1.5,3.62,4.6v7.7h-1.1v-7.55
			c0-2.55-0.8-3.75-2.75-3.75c-1.42,0-2.45,0.75-3.92,2.25v9.05h-1.1V4416.03z"/>
		<path class="st3" d="M512.67,4421.7c2.9,0,5.4,2.3,5.4,6.32c0,3.97-2.5,6.27-5.4,6.27c-2.87,0-5.37-2.3-5.37-6.27
			C507.3,4424,509.8,4421.7,512.67,4421.7z M512.67,4433.33c2.42,0,4.25-2.15,4.25-5.3c0-3.17-1.82-5.35-4.25-5.35
			s-4.22,2.17-4.22,5.35C508.45,4431.18,510.25,4433.33,512.67,4433.33z"/>
		<path class="st3" d="M526.67,4416.03h1.1v16.52c0,0.52,0.22,0.77,0.52,0.77c0.1,0,0.2,0,0.45-0.05l0.2,0.9
			c-0.22,0.08-0.45,0.12-0.8,0.12c-0.97,0-1.47-0.6-1.47-1.9V4416.03z"/>
		<path class="st3" d="M544.67,4426.48c0.05-1.82-0.47-3.8-2.82-3.8c-1.62,0-3.02,0.8-3.82,1.4l-0.5-0.82
			c0.85-0.6,2.5-1.55,4.45-1.55c2.85,0,3.8,2.05,3.8,4.62v7.67h-0.92l-0.12-1.55h-0.05c-1.22,0.97-2.67,1.85-4.25,1.85
			c-1.9,0-3.5-1.02-3.5-3.3C536.92,4428.35,539.35,4427.08,544.67,4426.48z M540.6,4433.35c1.37,0,2.6-0.67,4.07-1.95v-4.07
			c-4.92,0.58-6.6,1.72-6.6,3.62C538.07,4432.68,539.22,4433.35,540.6,4433.35z"/>
		<path class="st3" d="M555.07,4422h0.95l0.1,2.22h0.08c0.8-1.47,1.97-2.52,3.4-2.52c0.45,0,0.8,0.05,1.2,0.25l-0.25,1
			c-0.4-0.15-0.62-0.2-1.1-0.2c-1.07,0-2.35,0.82-3.27,3.07v8.17h-1.1V4422z"/>
		<path class="st3" d="M566.9,4431.83c1.02,0.85,2.1,1.53,3.82,1.53c1.87,0,2.85-1.1,2.85-2.38c0-1.5-1.55-2.15-2.92-2.65
			c-1.82-0.65-3.82-1.37-3.82-3.42c0-1.75,1.38-3.2,3.87-3.2c1.27,0,2.55,0.52,3.42,1.25l-0.6,0.77c-0.8-0.6-1.65-1.08-2.87-1.08
			c-1.85,0-2.7,1.08-2.7,2.17c0,1.33,1.4,1.9,2.82,2.42c1.87,0.7,3.92,1.32,3.92,3.67c0,1.8-1.45,3.37-4.05,3.37
			c-1.77,0-3.32-0.75-4.4-1.65L566.9,4431.83z"/>
		<path class="st3" d="M582.87,4416.03h1.1v5.2v2.65c1.25-1.25,2.5-2.17,4.15-2.17c2.47,0,3.62,1.5,3.62,4.6v7.7h-1.1v-7.55
			c0-2.55-0.8-3.75-2.75-3.75c-1.42,0-2.45,0.75-3.92,2.25v9.05h-1.1V4416.03z"/>
		<path class="st3" d="M600.65,4418.13c0-0.62,0.45-1,1-1c0.55,0,1,0.38,1,1c0,0.58-0.45,0.97-1,0.97
			C601.1,4419.1,600.65,4418.7,600.65,4418.13z M601.07,4422h1.1v12h-1.1V4422z"/>
		<path class="st3" d="M612.9,4435.05v4.37h-1.1V4422h0.95l0.1,1.5h0.08c1.17-0.92,2.6-1.8,4.07-1.8c3.2,0,4.8,2.4,4.8,6.12
			c0,4.07-2.47,6.47-5.3,6.47c-1.12,0-2.35-0.55-3.6-1.47V4435.05z M616.45,4433.33c2.42,0,4.17-2.25,4.17-5.5
			c0-2.95-1.05-5.15-3.8-5.15c-1.2,0-2.47,0.7-3.92,1.97v7.12C614.27,4432.9,615.52,4433.33,616.45,4433.33z"/>
		<path class="st3" d="M644.75,4421.7c2.9,0,5.4,2.3,5.4,6.32c0,3.97-2.5,6.27-5.4,6.27c-2.87,0-5.37-2.3-5.37-6.27
			C639.37,4424,641.87,4421.7,644.75,4421.7z M644.75,4433.33c2.42,0,4.25-2.15,4.25-5.3c0-3.17-1.83-5.35-4.25-5.35
			s-4.22,2.17-4.22,5.35C640.52,4431.18,642.32,4433.33,644.75,4433.33z"/>
		<path class="st3" d="M658.75,4422h0.95l0.1,2.22h0.07c0.8-1.47,1.97-2.52,3.4-2.52c0.45,0,0.8,0.05,1.2,0.25l-0.25,1
			c-0.4-0.15-0.62-0.2-1.1-0.2c-1.08,0-2.35,0.82-3.27,3.07v8.17h-1.1V4422z"/>
		<path class="st3" d="M682.42,4433.55v-0.1c-0.6-0.35-1.05-1-1.05-1.92c0-1.07,0.78-1.82,1.3-2.2v-0.1c-0.75-0.65-1.5-1.85-1.5-3.3
			c0-2.47,1.88-4.22,4.22-4.22c0.65,0,1.2,0.15,1.57,0.3h4.07v0.92h-2.8c0.78,0.67,1.33,1.75,1.33,3.02c0,2.45-1.83,4.22-4.17,4.22
			c-0.67,0-1.45-0.17-2-0.5c-0.52,0.42-0.97,0.92-0.97,1.72c0,0.88,0.5,1.58,2.3,1.58h2.57c2.7,0,3.95,0.85,3.95,2.75
			c0,2.07-2.22,4.05-5.67,4.05c-3.02,0-4.92-1.3-4.92-3.32C680.65,4435.4,681.32,4434.35,682.42,4433.55z M685.7,4438.87
			c2.7,0,4.42-1.52,4.42-3.02c0-1.33-0.97-1.82-2.77-1.82h-2.57c-0.25,0-0.88-0.05-1.5-0.2c-1.1,0.75-1.57,1.67-1.57,2.52
			C681.7,4437.85,683.15,4438.87,685.7,4438.87z M688.49,4425.93c0-2.02-1.4-3.32-3.1-3.32c-1.7,0-3.12,1.28-3.12,3.32
			c0,2.02,1.45,3.37,3.12,3.37C687.04,4429.3,688.49,4427.95,688.49,4425.93z"/>
		<path class="st3" d="M698.82,4422h0.95l0.1,2.22h0.07c0.8-1.47,1.97-2.52,3.4-2.52c0.45,0,0.8,0.05,1.2,0.25l-0.25,1
			c-0.4-0.15-0.62-0.2-1.1-0.2c-1.08,0-2.35,0.82-3.27,3.07v8.17h-1.1V4422z"/>
		<path class="st3" d="M718.25,4426.48c0.05-1.82-0.48-3.8-2.82-3.8c-1.62,0-3.02,0.8-3.82,1.4l-0.5-0.82
			c0.85-0.6,2.5-1.55,4.45-1.55c2.85,0,3.8,2.05,3.8,4.62v7.67h-0.92l-0.12-1.55h-0.05c-1.22,0.97-2.67,1.85-4.25,1.85
			c-1.9,0-3.5-1.02-3.5-3.3C710.5,4428.35,712.92,4427.08,718.25,4426.48z M714.17,4433.35c1.38,0,2.6-0.67,4.07-1.95v-4.07
			c-4.92,0.58-6.6,1.72-6.6,3.62C711.65,4432.68,712.8,4433.35,714.17,4433.35z"/>
		<path class="st3" d="M728.65,4422h0.95l0.1,1.85h0.07c1.22-1.22,2.47-2.15,4.12-2.15c2.47,0,3.62,1.5,3.62,4.6v7.7h-1.1v-7.55
			c0-2.55-0.8-3.75-2.75-3.75c-1.42,0-2.45,0.75-3.92,2.25v9.05h-1.1V4422z"/>
		<path class="st3" d="M747.22,4422.95h-1.87v-0.85l1.9-0.1l0.15-3.47h0.95v3.47h3.47v0.95h-3.47v7.82c0,1.53,0.38,2.55,2.02,2.55
			c0.45,0,1.08-0.17,1.5-0.38l0.3,0.9c-0.7,0.25-1.45,0.45-1.95,0.45c-2.32,0-3-1.47-3-3.62V4422.95z"/>
	</g>
</g>
</svg>
