<?xml version="1.0" encoding="utf-8"?>
<!-- Generator: Adobe Illustrator 23.0.3, SVG Export Plug-In . SVG Version: 6.00 Build 0)  -->
<svg version="1.1" id="Layer_1" xmlns="http://www.w3.org/2000/svg" xmlns:xlink="http://www.w3.org/1999/xlink" x="0px" y="0px"
	 viewBox="0 0 553.2 553.22" style="enable-background:new 0 0 553.2 553.22;" xml:space="preserve">
<style type="text/css">
	.st0{fill:#BED1DA;}
	.st1{fill:#00326A;}
	.st2{enable-background:new    ;}
	.st3{fill:#003E7E;}
</style>
<g id="Group_101" transform="translate(-1011.799 -4058)">
	<g id="Group_97" transform="translate(1150.851 4067.057)">
		<path id="Path_212" class="st0" d="M137.56,267.55l0.05-0.16L222.9,4.52C77.63-42.62-78.35,36.94-125.48,182.21
			s32.42,301.25,177.69,348.38S353.46,498.17,400.6,352.9c8.98-27.6,13.55-56.44,13.55-85.46L137.56,267.55z"/>
		<g id="Group_96" transform="translate(137.56 15.844)">
			<path id="Path_213" class="st1" d="M0.05,251.56L0,251.71l264.68-0.11C264.65,140.03,193.53,36.29,81.67,0L0.05,251.56z"/>
		</g>
	</g>
	<g class="st2">
		<path class="st3" d="M1087.35,4318.55c0-5.1,3.9-8.78,9.82-10.65c-5.02-1.95-9-5.4-9-12.53c0-9.15,7.27-15.22,19.87-15.22
			c13.87,0,19.2,5.17,19.2,12.9c0,5.02-3.45,8.32-9.07,10.05c5.62,2.02,10.5,5.7,10.5,13.35c0,9.45-7.65,15.6-21,15.6
			C1093.28,4332.05,1087.35,4326.65,1087.35,4318.55z M1104.67,4309.85c-3.82,1.8-5.85,4.65-5.85,8.17c0,4.42,3.37,7.05,8.77,7.05
			s8.7-2.62,8.7-6.9C1116.3,4313.08,1111.2,4311.28,1104.67,4309.85z M1110.52,4301.38c3.75-1.58,5.7-4.27,5.7-7.87
			c0-4.35-2.85-6.67-7.8-6.67c-5.25,0-8.17,2.32-8.17,6.6C1100.25,4298.15,1104.67,4300.03,1110.52,4301.38z"/>
		<path class="st3" d="M1131.6,4306.1c0-16.5,8.25-25.95,22.8-25.95c14.25,0,22.2,9.37,22.2,25.95c0,16.58-8.17,25.95-22.65,25.95
			C1139.62,4332.05,1131.6,4322.75,1131.6,4306.1z M1163.55,4309.7v-7.2c0-10.42-2.77-14.92-9.22-14.92c-6.67,0-9.52,4.5-9.52,14.92
			v7.2c0,10.5,2.77,14.85,9.3,14.85C1160.7,4324.55,1163.55,4320.05,1163.55,4309.7z"/>
		<path class="st3" d="M1179.37,4292.68c0-7.35,5.02-12.52,13.27-12.52c7.95,0,12.97,5.17,12.97,12.52s-5.17,12.52-13.27,12.52
			C1184.32,4305.2,1179.37,4300.1,1179.37,4292.68z M1203.3,4304.45l17.25-23.25h8.32l-17.62,23.32l-19.57,26.47h-8.4
			L1203.3,4304.45z M1196.77,4293.28v-1.2c0-4.87-1.2-6.52-4.27-6.52c-3.15,0-4.35,1.65-4.35,6.52v1.2c0,4.95,1.12,6.6,4.2,6.6
			C1195.5,4299.88,1196.77,4298.23,1196.77,4293.28z M1206.75,4319.53c0-7.35,5.1-12.52,13.27-12.52c7.95,0,12.97,5.1,12.97,12.52
			c0,7.35-5.1,12.52-13.27,12.52C1211.7,4332.05,1206.75,4326.88,1206.75,4319.53z M1224.15,4320.12v-1.2c0-4.95-1.05-6.6-4.2-6.6
			c-3.15,0-4.43,1.65-4.43,6.6v1.2c0,4.88,1.2,6.53,4.35,6.53C1222.95,4326.65,1224.15,4324.92,1224.15,4320.12z"/>
	</g>
	<g class="st2">
		<path class="st3" d="M1092.67,4383.7c2.9,0,5.4,2.3,5.4,6.32c0,3.97-2.5,6.27-5.4,6.27c-2.87,0-5.37-2.3-5.37-6.27
			C1087.3,4386,1089.8,4383.7,1092.67,4383.7z M1092.67,4395.33c2.42,0,4.25-2.15,4.25-5.3c0-3.17-1.82-5.35-4.25-5.35
			s-4.22,2.17-4.22,5.35C1088.45,4393.18,1090.25,4395.33,1092.67,4395.33z"/>
		<path class="st3" d="M1111.27,4379.03c-0.5-0.25-1-0.35-1.45-0.35c-1.27,0-1.87,1-1.87,2.72v2.6h2.77v0.95h-2.77V4396h-1.1v-11.05
			h-1.65v-0.85l1.65-0.1v-2.67c0-2.37,1.07-3.6,2.97-3.6c0.55,0,1.2,0.15,1.75,0.4L1111.27,4379.03z"/>
		<path class="st3" d="M1128.22,4384h0.95l0.1,1.85h0.08c1.22-1.22,2.47-2.15,4.12-2.15c2.47,0,3.62,1.5,3.62,4.6v7.7h-1.1v-7.55
			c0-2.55-0.8-3.75-2.75-3.75c-1.42,0-2.45,0.75-3.92,2.25v9.05h-1.1V4384z"/>
		<path class="st3" d="M1150.75,4383.7c2.85,0,4.6,2.02,4.6,5.55c0,0.3,0,0.6-0.05,0.9h-8.65c0.05,3.02,1.82,5.2,4.52,5.2
			c1.3,0,2.32-0.43,3.22-1.08l0.45,0.85c-0.95,0.58-2.02,1.17-3.77,1.17c-3.07,0-5.55-2.35-5.55-6.27S1148.07,4383.7,1150.75,4383.7
			z M1154.3,4389.3c0-3.07-1.38-4.65-3.52-4.65c-2.05,0-3.87,1.78-4.12,4.65H1154.3z"/>
		<path class="st3" d="M1162.2,4384h1.2l2.15,7.77c0.3,1.1,0.57,2.12,0.82,3.2h0.1c0.27-1.08,0.57-2.1,0.87-3.2l2.17-7.77h1.32
			l2.17,7.77c0.3,1.1,0.6,2.12,0.9,3.2h0.1c0.27-1.08,0.58-2.1,0.85-3.2l2.12-7.77h1.12l-3.45,12h-1.45l-2.1-7.45
			c-0.35-1.15-0.57-2.25-0.92-3.42h-0.1c-0.27,1.17-0.58,2.32-0.95,3.47l-2.07,7.4h-1.32L1162.2,4384z"/>
		<path class="st3" d="M1195.15,4393.83c1.02,0.85,2.1,1.53,3.82,1.53c1.87,0,2.85-1.1,2.85-2.38c0-1.5-1.55-2.15-2.92-2.65
			c-1.82-0.65-3.82-1.37-3.82-3.42c0-1.75,1.38-3.2,3.87-3.2c1.27,0,2.55,0.52,3.42,1.25l-0.6,0.77c-0.8-0.6-1.65-1.08-2.87-1.08
			c-1.85,0-2.7,1.08-2.7,2.17c0,1.33,1.4,1.9,2.82,2.42c1.87,0.7,3.92,1.32,3.92,3.67c0,1.8-1.45,3.37-4.05,3.37
			c-1.77,0-3.32-0.75-4.4-1.65L1195.15,4393.83z"/>
		<path class="st3" d="M1211.4,4384.95h-1.87v-0.85l1.9-0.1l0.15-3.47h0.95v3.47h3.47v0.95h-3.47v7.82c0,1.53,0.38,2.55,2.02,2.55
			c0.45,0,1.07-0.17,1.5-0.38l0.3,0.9c-0.7,0.25-1.45,0.45-1.95,0.45c-2.32,0-3-1.47-3-3.62V4384.95z"/>
		<path class="st3" d="M1223.52,4384h1.1v7.55c0,2.55,0.8,3.75,2.72,3.75c1.42,0,2.47-0.75,3.87-2.45V4384h1.1v12h-0.92l-0.12-2
			h-0.05c-1.17,1.38-2.42,2.3-4.07,2.3c-2.47,0-3.62-1.5-3.62-4.6V4384z"/>
		<path class="st3" d="M1246.25,4383.7c1.45,0,2.42,0.55,3.62,1.47l-0.05-2.2v-4.95h1.1V4396h-0.95l-0.1-1.55h-0.08
			c-0.97,0.97-2.3,1.85-3.9,1.85c-3.02,0-4.97-2.22-4.97-6.27C1240.92,4386.15,1243.4,4383.7,1246.25,4383.7z M1246.05,4395.33
			c1.32,0,2.5-0.7,3.77-1.97v-7.12c-1.27-1.12-2.32-1.55-3.5-1.55c-2.4,0-4.22,2.32-4.22,5.35
			C1242.1,4393.2,1243.5,4395.33,1246.05,4395.33z"/>
		<path class="st3" d="M1264.75,4383.7c2.85,0,4.6,2.02,4.6,5.55c0,0.3,0,0.6-0.05,0.9h-8.65c0.05,3.02,1.82,5.2,4.52,5.2
			c1.3,0,2.32-0.43,3.22-1.08l0.45,0.85c-0.95,0.58-2.02,1.17-3.77,1.17c-3.07,0-5.55-2.35-5.55-6.27S1262.07,4383.7,1264.75,4383.7
			z M1268.3,4389.3c0-3.07-1.38-4.65-3.52-4.65c-2.05,0-3.87,1.78-4.12,4.65H1268.3z"/>
		<path class="st3" d="M1277.6,4384h0.95l0.1,1.85h0.08c1.22-1.22,2.47-2.15,4.12-2.15c2.47,0,3.62,1.5,3.62,4.6v7.7h-1.1v-7.55
			c0-2.55-0.8-3.75-2.75-3.75c-1.42,0-2.45,0.75-3.92,2.25v9.05h-1.1V4384z"/>
		<path class="st3" d="M1296.17,4384.95h-1.88v-0.85l1.9-0.1l0.15-3.47h0.95v3.47h3.47v0.95h-3.47v7.82c0,1.53,0.38,2.55,2.02,2.55
			c0.45,0,1.07-0.17,1.5-0.38l0.3,0.9c-0.7,0.25-1.45,0.45-1.95,0.45c-2.32,0-3-1.47-3-3.62V4384.95z"/>
		<path class="st3" d="M1307.85,4393.83c1.03,0.85,2.1,1.53,3.82,1.53c1.88,0,2.85-1.1,2.85-2.38c0-1.5-1.55-2.15-2.92-2.65
			c-1.82-0.65-3.82-1.37-3.82-3.42c0-1.75,1.38-3.2,3.87-3.2c1.28,0,2.55,0.52,3.42,1.25l-0.6,0.77c-0.8-0.6-1.65-1.08-2.88-1.08
			c-1.85,0-2.7,1.08-2.7,2.17c0,1.33,1.4,1.9,2.82,2.42c1.88,0.7,3.92,1.32,3.92,3.67c0,1.8-1.45,3.37-4.05,3.37
			c-1.77,0-3.32-0.75-4.4-1.65L1307.85,4393.83z"/>
		<path class="st3" d="M1333.8,4384h0.95l0.1,2.22h0.08c0.8-1.47,1.97-2.52,3.4-2.52c0.45,0,0.8,0.05,1.2,0.25l-0.25,1
			c-0.4-0.15-0.62-0.2-1.1-0.2c-1.08,0-2.35,0.82-3.27,3.07v8.17h-1.1V4384z"/>
		<path class="st3" d="M1350.7,4383.7c2.85,0,4.6,2.02,4.6,5.55c0,0.3,0,0.6-0.05,0.9h-8.65c0.05,3.02,1.82,5.2,4.52,5.2
			c1.3,0,2.32-0.43,3.22-1.08l0.45,0.85c-0.95,0.58-2.02,1.17-3.77,1.17c-3.07,0-5.55-2.35-5.55-6.27S1348.02,4383.7,1350.7,4383.7z
			 M1354.24,4389.3c0-3.07-1.37-4.65-3.52-4.65c-2.05,0-3.87,1.78-4.12,4.65H1354.24z"/>
		<path class="st3" d="M1368.02,4383.7c1.65,0,2.72,0.72,3.52,1.47l-0.65,0.77c-0.77-0.72-1.67-1.27-2.85-1.27
			c-2.45,0-4.35,2.17-4.35,5.35c0,3.15,1.72,5.3,4.35,5.3c1.28,0,2.38-0.62,3.2-1.38l0.58,0.75c-1.02,0.92-2.3,1.6-3.82,1.6
			c-3.1,0-5.45-2.3-5.45-6.27C1362.55,4386,1365.1,4383.7,1368.02,4383.7z"/>
		<path class="st3" d="M1383.57,4383.7c2.85,0,4.6,2.02,4.6,5.55c0,0.3,0,0.6-0.05,0.9h-8.65c0.05,3.02,1.82,5.2,4.52,5.2
			c1.3,0,2.32-0.43,3.22-1.08l0.45,0.85c-0.95,0.58-2.02,1.17-3.77,1.17c-3.07,0-5.55-2.35-5.55-6.27S1380.9,4383.7,1383.57,4383.7z
			 M1387.12,4389.3c0-3.07-1.37-4.65-3.52-4.65c-2.05,0-3.87,1.78-4.12,4.65H1387.12z"/>
		<path class="st3" d="M1396,4380.13c0-0.62,0.45-1,1-1s1,0.38,1,1c0,0.58-0.45,0.97-1,0.97S1396,4380.7,1396,4380.13z
			 M1396.42,4384h1.1v12h-1.1V4384z"/>
		<path class="st3" d="M1405.15,4384h1.2l2.7,7.52c0.38,1.15,0.82,2.35,1.2,3.45h0.1c0.4-1.1,0.82-2.3,1.22-3.45l2.7-7.52h1.12
			l-4.45,12h-1.3L1405.15,4384z"/>
		<path class="st3" d="M1427.22,4383.7c2.85,0,4.6,2.02,4.6,5.55c0,0.3,0,0.6-0.05,0.9h-8.65c0.05,3.02,1.82,5.2,4.52,5.2
			c1.3,0,2.32-0.43,3.22-1.08l0.45,0.85c-0.95,0.58-2.02,1.17-3.77,1.17c-3.07,0-5.55-2.35-5.55-6.27S1424.54,4383.7,1427.22,4383.7
			z M1430.77,4389.3c0-3.07-1.37-4.65-3.52-4.65c-2.05,0-3.87,1.78-4.12,4.65H1430.77z"/>
	</g>
	<g class="st2">
		<path class="st3" d="M1087.45,4431.83c1.02,0.85,2.1,1.53,3.82,1.53c1.87,0,2.85-1.1,2.85-2.38c0-1.5-1.55-2.15-2.92-2.65
			c-1.82-0.65-3.82-1.37-3.82-3.42c0-1.75,1.38-3.2,3.87-3.2c1.27,0,2.55,0.52,3.42,1.25l-0.6,0.77c-0.8-0.6-1.65-1.08-2.87-1.08
			c-1.85,0-2.7,1.08-2.7,2.17c0,1.33,1.4,1.9,2.82,2.42c1.87,0.7,3.92,1.32,3.92,3.67c0,1.8-1.45,3.37-4.05,3.37
			c-1.77,0-3.32-0.75-4.4-1.65L1087.45,4431.83z"/>
		<path class="st3" d="M1103.7,4422.95h-1.87v-0.85l1.9-0.1l0.15-3.47h0.95v3.47h3.47v0.95h-3.47v7.82c0,1.53,0.38,2.55,2.02,2.55
			c0.45,0,1.07-0.17,1.5-0.38l0.3,0.9c-0.7,0.25-1.45,0.45-1.95,0.45c-2.32,0-3-1.47-3-3.62V4422.95z"/>
		<path class="st3" d="M1122.77,4426.48c0.05-1.82-0.47-3.8-2.82-3.8c-1.62,0-3.02,0.8-3.82,1.4l-0.5-0.82
			c0.85-0.6,2.5-1.55,4.45-1.55c2.85,0,3.8,2.05,3.8,4.62v7.67h-0.92l-0.12-1.55h-0.05c-1.22,0.97-2.67,1.85-4.25,1.85
			c-1.9,0-3.5-1.02-3.5-3.3C1115.02,4428.35,1117.45,4427.08,1122.77,4426.48z M1118.7,4433.35c1.37,0,2.6-0.67,4.07-1.95v-4.07
			c-4.92,0.58-6.6,1.72-6.6,3.62C1116.17,4432.68,1117.32,4433.35,1118.7,4433.35z"/>
		<path class="st3" d="M1133.45,4422.95h-1.87v-0.85l1.9-0.1l0.15-3.47h0.95v3.47h3.47v0.95h-3.47v7.82c0,1.53,0.38,2.55,2.02,2.55
			c0.45,0,1.07-0.17,1.5-0.38l0.3,0.9c-0.7,0.25-1.45,0.45-1.95,0.45c-2.32,0-3-1.47-3-3.62V4422.95z"/>
		<path class="st3" d="M1149.95,4421.7c2.85,0,4.6,2.02,4.6,5.55c0,0.3,0,0.6-0.05,0.9h-8.65c0.05,3.02,1.82,5.2,4.52,5.2
			c1.3,0,2.32-0.43,3.22-1.08l0.45,0.85c-0.95,0.58-2.02,1.17-3.77,1.17c-3.07,0-5.55-2.35-5.55-6.27S1147.27,4421.7,1149.95,4421.7
			z M1153.5,4427.3c0-3.07-1.38-4.65-3.52-4.65c-2.05,0-3.87,1.78-4.12,4.65H1153.5z"/>
		<path class="st3" d="M1177.15,4421.7c2.9,0,5.4,2.3,5.4,6.32c0,3.97-2.5,6.27-5.4,6.27c-2.87,0-5.37-2.3-5.37-6.27
			C1171.77,4424,1174.27,4421.7,1177.15,4421.7z M1177.15,4433.33c2.42,0,4.25-2.15,4.25-5.3c0-3.17-1.82-5.35-4.25-5.35
			s-4.22,2.17-4.22,5.35C1172.92,4431.18,1174.72,4433.33,1177.15,4433.33z"/>
		<path class="st3" d="M1191.15,4422h0.95l0.1,2.22h0.08c0.8-1.47,1.97-2.52,3.4-2.52c0.45,0,0.8,0.05,1.2,0.25l-0.25,1
			c-0.4-0.15-0.62-0.2-1.1-0.2c-1.07,0-2.35,0.82-3.27,3.07v8.17h-1.1V4422z"/>
		<path class="st3" d="M1218.65,4417.03c-0.5-0.25-1-0.35-1.45-0.35c-1.27,0-1.87,1-1.87,2.72v2.6h2.77v0.95h-2.77V4434h-1.1v-11.05
			h-1.65v-0.85l1.65-0.1v-2.67c0-2.37,1.07-3.6,2.97-3.6c0.55,0,1.2,0.15,1.75,0.4L1218.65,4417.03z"/>
		<path class="st3" d="M1229.6,4421.7c2.85,0,4.6,2.02,4.6,5.55c0,0.3,0,0.6-0.05,0.9h-8.65c0.05,3.02,1.82,5.2,4.52,5.2
			c1.3,0,2.32-0.43,3.22-1.08l0.45,0.85c-0.95,0.58-2.02,1.17-3.77,1.17c-3.07,0-5.55-2.35-5.55-6.27S1226.92,4421.7,1229.6,4421.7z
			 M1233.15,4427.3c0-3.07-1.38-4.65-3.52-4.65c-2.05,0-3.87,1.78-4.12,4.65H1233.15z"/>
		<path class="st3" d="M1246.77,4421.7c1.45,0,2.42,0.55,3.62,1.47l-0.05-2.2v-4.95h1.1V4434h-0.95l-0.1-1.55h-0.08
			c-0.97,0.97-2.3,1.85-3.9,1.85c-3.02,0-4.97-2.22-4.97-6.27C1241.45,4424.15,1243.92,4421.7,1246.77,4421.7z M1246.57,4433.33
			c1.32,0,2.5-0.7,3.77-1.97v-7.12c-1.27-1.12-2.32-1.55-3.5-1.55c-2.4,0-4.22,2.32-4.22,5.35
			C1242.62,4431.2,1244.02,4433.33,1246.57,4433.33z"/>
		<path class="st3" d="M1265.27,4421.7c2.85,0,4.6,2.02,4.6,5.55c0,0.3,0,0.6-0.05,0.9h-8.65c0.05,3.02,1.82,5.2,4.52,5.2
			c1.3,0,2.32-0.43,3.22-1.08l0.45,0.85c-0.95,0.58-2.02,1.17-3.77,1.17c-3.07,0-5.55-2.35-5.55-6.27S1262.6,4421.7,1265.27,4421.7z
			 M1268.82,4427.3c0-3.07-1.38-4.65-3.52-4.65c-2.05,0-3.87,1.78-4.12,4.65H1268.82z"/>
		<path class="st3" d="M1278.12,4422h0.95l0.1,2.22h0.08c0.8-1.47,1.97-2.52,3.4-2.52c0.45,0,0.8,0.05,1.2,0.25l-0.25,1
			c-0.4-0.15-0.62-0.2-1.1-0.2c-1.07,0-2.35,0.82-3.27,3.07v8.17h-1.1V4422z"/>
		<path class="st3" d="M1297.54,4426.48c0.05-1.82-0.47-3.8-2.82-3.8c-1.62,0-3.02,0.8-3.82,1.4l-0.5-0.82
			c0.85-0.6,2.5-1.55,4.45-1.55c2.85,0,3.8,2.05,3.8,4.62v7.67h-0.92l-0.12-1.55h-0.05c-1.22,0.97-2.67,1.85-4.25,1.85
			c-1.9,0-3.5-1.02-3.5-3.3C1289.8,4428.35,1292.22,4427.08,1297.54,4426.48z M1293.47,4433.35c1.37,0,2.6-0.67,4.07-1.95v-4.07
			c-4.92,0.58-6.6,1.72-6.6,3.62C1290.95,4432.68,1292.1,4433.35,1293.47,4433.35z"/>
		<path class="st3" d="M1307.95,4416.03h1.1v16.52c0,0.52,0.22,0.77,0.52,0.77c0.1,0,0.2,0,0.45-0.05l0.2,0.9
			c-0.22,0.08-0.45,0.12-0.8,0.12c-0.97,0-1.47-0.6-1.47-1.9V4416.03z"/>
		<path class="st3" d="M1335.92,4426.48c0.05-1.82-0.47-3.8-2.82-3.8c-1.62,0-3.02,0.8-3.82,1.4l-0.5-0.82
			c0.85-0.6,2.5-1.55,4.45-1.55c2.85,0,3.8,2.05,3.8,4.62v7.67h-0.92l-0.12-1.55h-0.05c-1.22,0.97-2.67,1.85-4.25,1.85
			c-1.9,0-3.5-1.02-3.5-3.3C1328.17,4428.35,1330.59,4427.08,1335.92,4426.48z M1331.84,4433.35c1.38,0,2.6-0.67,4.07-1.95v-4.07
			c-4.92,0.58-6.6,1.72-6.6,3.62C1329.32,4432.68,1330.47,4433.35,1331.84,4433.35z"/>
		<path class="st3" d="M1345.9,4418.13c0-0.62,0.45-1,1-1s1,0.38,1,1c0,0.58-0.45,0.97-1,0.97S1345.9,4418.7,1345.9,4418.13z
			 M1346.32,4422h1.1v12h-1.1V4422z"/>
		<path class="st3" d="M1361.37,4421.7c1.45,0,2.42,0.55,3.62,1.47l-0.05-2.2v-4.95h1.1V4434h-0.95l-0.1-1.55h-0.07
			c-0.98,0.97-2.3,1.85-3.9,1.85c-3.02,0-4.97-2.22-4.97-6.27C1356.05,4424.15,1358.52,4421.7,1361.37,4421.7z M1361.17,4433.33
			c1.32,0,2.5-0.7,3.77-1.97v-7.12c-1.27-1.12-2.32-1.55-3.5-1.55c-2.4,0-4.22,2.32-4.22,5.35
			C1357.22,4431.2,1358.62,4433.33,1361.17,4433.33z"/>
	</g>
</g>
</svg>
